<svg width="32" height="32" viewBox="0 0 32 32" fill="none" xmlns="http://www.w3.org/2000/svg">
<g clip-path="url(#clip0_13_153)">
<path d="M16 8C17.4666 8 18.6666 9.2 18.6666 10.6667C18.6666 12.1333 17.4666 13.3333 16 13.3333C14.5333 13.3333 13.3333 12.1333 13.3333 10.6667C13.3333 9.2 14.5333 8 16 8ZM16 20C19.6 20 23.7333 21.72 24 22.6667V24H7.99998V22.68C8.26665 21.72 12.4 20 16 20ZM16 5.33333C13.0533 5.33333 10.6666 7.72 10.6666 10.6667C10.6666 13.6133 13.0533 16 16 16C18.9466 16 21.3333 13.6133 21.3333 10.6667C21.3333 7.72 18.9466 5.33333 16 5.33333ZM16 17.3333C12.44 17.3333 5.33331 19.12 5.33331 22.6667V26.6667H26.6666V22.6667C26.6666 19.12 19.56 17.3333 16 17.3333Z" fill="#DDDDDD"/>
</g>
<defs>
<clipPath id="clip0_13_153">
<rect width="32" height="32" fill="white"/>
</clipPath>
</defs>
</svg>
