<svg width="534" height="600" viewBox="0 0 534 600" fill="none" xmlns="http://www.w3.org/2000/svg">
<g clip-path="url(#clip0_5_659)">
<path d="M111.57 24.9181C46.0205 52.9177 -4.2736 107.92 -27.8998 177.336C-36.1413 201.716 -41.0565 237.159 -39.9828 264.742C-39.3427 282.692 -34.7117 313.826 -32.7778 313.324C-32.3481 313.213 -28.1221 310.053 -23.4982 306.218C14.4837 274.93 70.9052 240.468 115.827 220.912C123.256 217.725 130.148 214.677 131.246 214.048C132.559 213.364 133.455 211.068 133.773 207.431C135.711 185.717 151.187 160.493 170.458 147.701C206.029 123.918 253.711 130.935 281.266 163.807C288.448 172.494 288.555 172.466 293.263 172.049C345.979 166.638 396.136 167.28 445.701 174.038C447.615 174.345 446.723 170.907 440.926 157.389C424.27 117.908 395.55 80.9801 362.846 56.5512C309.223 16.4477 247.67 -0.731997 183.096 6.26166C163.22 8.31837 129.835 17.0876 111.57 24.9181Z" fill="#232323"/>
<path d="M190.501 177.247C176.852 186.518 168.933 201.527 168.861 218.056C168.598 240.483 185.676 260.363 208.838 264.793C216.55 266.233 217.788 266.142 228.961 263.245C240.457 260.265 240.966 260.019 247.886 253.982C259.991 243.621 266.187 228.6 264.839 212.783C263.156 192.58 247.284 175.139 226.461 170.447C218.693 168.792 217.321 168.804 206.708 171.211C197.842 173.28 194.301 174.656 190.501 177.247Z" fill="#232323"/>
<path d="M130.803 271.607C82.6742 293.829 36.0933 323.791 -2.46172 357.29C-8.63355 362.674 -13.735 367.322 -13.922 367.485C-14.0812 367.755 -11.7535 372.311 -8.63793 377.695C26.3214 438.689 83.9823 481.988 152.881 498.754C178.833 505.097 210.292 507.032 238.505 503.961C256.793 501.972 290.421 493.254 306.728 486.275C349.13 468.06 384.88 440.103 411.569 404.176C439.349 366.705 457.284 317.797 460.218 271.174C461.158 255.337 460.561 233.133 459.117 231.099C458.218 229.842 435.656 226.403 413.806 224.385C384.034 221.44 350.948 221.188 319.066 223.376C308.923 224.056 300.476 224.641 300.261 224.697C300.153 224.725 299.166 228.879 298.187 233.948C293.885 256.275 279.659 276.588 259.632 289.118C249.083 295.751 231.065 300.995 218.574 301.023C193.406 301.241 170.112 290.998 153.448 272.272C149.696 267.97 146.194 264.635 145.578 264.91C145.04 265.049 138.391 268.149 130.803 271.607Z" fill="#232323"/>
</g>
<defs>
<clipPath id="clip0_5_659">
<rect width="543.501" height="543.501" fill="white" transform="translate(-129 73.3843) rotate(-14.5329)"/>
</clipPath>
</defs>
</svg>
